<svg
  xmlns="http://www.w3.org/2000/svg"
  width="1200"
  height="630"
  viewBox="0 0 1200 630"
  role="img"
  aria-labelledby="title desc"
>
  <title id="title">RG Project Dump social preview image</title>
  <desc id="desc">Dark branded preview card for RG Project Dump with the subtitle A hub for projects, releases, and source code.</desc>

  <defs>
    <linearGradient id="bg" x1="0%" y1="0%" x2="100%" y2="100%">
      <stop offset="0%" stop-color="#02040a" />
      <stop offset="55%" stop-color="#050505" />
      <stop offset="100%" stop-color="#08111f" />
    </linearGradient>
    <radialGradient id="glowPrimary" cx="30%" cy="25%" r="60%">
      <stop offset="0%" stop-color="#3b82f6" stop-opacity="0.30" />
      <stop offset="100%" stop-color="#3b82f6" stop-opacity="0" />
    </radialGradient>
    <radialGradient id="glowSecondary" cx="82%" cy="72%" r="38%">
      <stop offset="0%" stop-color="#60a5fa" stop-opacity="0.20" />
      <stop offset="100%" stop-color="#60a5fa" stop-opacity="0" />
    </radialGradient>
    <filter id="softBlur" x="-20%" y="-20%" width="140%" height="140%">
      <feGaussianBlur stdDeviation="18" />
    </filter>
    <filter id="panelShadow" x="-20%" y="-20%" width="140%" height="140%">
      <feDropShadow dx="0" dy="24" stdDeviation="28" flood-color="#000000" flood-opacity="0.4" />
    </filter>
  </defs>

  <rect width="1200" height="630" fill="url(#bg)" />
  <rect width="1200" height="630" fill="url(#glowPrimary)" />
  <rect width="1200" height="630" fill="url(#glowSecondary)" />

  <g opacity="0.95">
    <circle cx="90" cy="94" r="2.4" fill="#ffffff" />
    <circle cx="154" cy="66" r="1.2" fill="#bfdbfe" />
    <circle cx="250" cy="112" r="1.8" fill="#ffffff" />
    <circle cx="332" cy="72" r="1.1" fill="#93c5fd" />
    <circle cx="468" cy="118" r="2.2" fill="#ffffff" />
    <circle cx="620" cy="88" r="1.4" fill="#bfdbfe" />
    <circle cx="812" cy="74" r="2.1" fill="#ffffff" />
    <circle cx="930" cy="120" r="1.2" fill="#dbeafe" />
    <circle cx="1058" cy="86" r="2.6" fill="#ffffff" />
    <circle cx="1122" cy="132" r="1.3" fill="#93c5fd" />
    <circle cx="120" cy="202" r="1.3" fill="#bfdbfe" />
    <circle cx="224" cy="244" r="2.1" fill="#ffffff" />
    <circle cx="396" cy="198" r="1.1" fill="#dbeafe" />
    <circle cx="548" cy="236" r="1.7" fill="#ffffff" />
    <circle cx="726" cy="188" r="1.2" fill="#93c5fd" />
    <circle cx="904" cy="242" r="1.8" fill="#ffffff" />
    <circle cx="1036" cy="210" r="1.2" fill="#bfdbfe" />
    <circle cx="1110" cy="270" r="2.1" fill="#ffffff" />
    <circle cx="168" cy="522" r="1.4" fill="#bfdbfe" />
    <circle cx="278" cy="564" r="2.0" fill="#ffffff" />
    <circle cx="432" cy="516" r="1.1" fill="#dbeafe" />
    <circle cx="664" cy="560" r="1.8" fill="#ffffff" />
    <circle cx="846" cy="512" r="1.3" fill="#93c5fd" />
    <circle cx="1018" cy="556" r="2.0" fill="#ffffff" />
    <circle cx="1128" cy="510" r="1.1" fill="#bfdbfe" />
  </g>

  <g opacity="0.35">
    <path d="M0 170C156 128 286 118 426 150C572 184 690 168 852 134C977 107 1094 109 1200 145" fill="none" stroke="#3b82f6" stroke-width="1.5" />
    <path d="M0 492C156 452 322 448 474 478C639 510 777 511 925 470C1030 441 1123 435 1200 453" fill="none" stroke="#60a5fa" stroke-width="1.5" />
  </g>

  <g filter="url(#softBlur)">
    <circle cx="982" cy="200" r="82" fill="#3b82f6" opacity="0.24" />
    <circle cx="948" cy="422" r="66" fill="#60a5fa" opacity="0.18" />
  </g>

  <g filter="url(#panelShadow)">
    <rect x="72" y="86" width="760" height="458" rx="30" fill="#0a0d14" fill-opacity="0.9" stroke="#1d4ed8" stroke-opacity="0.38" />
    <rect x="72" y="86" width="760" height="458" rx="30" fill="url(#glowPrimary)" opacity="0.35" />
  </g>

  <g transform="translate(124 150)">
    <rect x="0" y="0" width="222" height="42" rx="21" fill="#0f172a" stroke="#3b82f6" stroke-opacity="0.65" />
    <text x="22" y="28" fill="#93c5fd" font-size="18" font-family="Helvetica, Arial, sans-serif" font-weight="700" letter-spacing="2.2">RGPROJECTDUMP.CA</text>

    <text x="0" y="132" fill="#f8fafc" font-size="74" font-family="Helvetica, Arial, sans-serif" font-weight="800" letter-spacing="-2.2">
      RG Project Dump
    </text>

    <text x="0" y="206" fill="#cbd5e1" font-size="30" font-family="Helvetica, Arial, sans-serif" font-weight="500">
      A hub for projects, releases, and source code.
    </text>

    <g transform="translate(0 270)">
      <rect x="0" y="0" width="176" height="108" rx="18" fill="#05070d" stroke="#1e3a8a" stroke-opacity="0.7" />
      <text x="24" y="42" fill="#60a5fa" font-size="16" font-family="Helvetica, Arial, sans-serif" font-weight="700" letter-spacing="1.6">CURRENT</text>
      <text x="24" y="78" fill="#f8fafc" font-size="34" font-family="Helvetica, Arial, sans-serif" font-weight="800">Projects</text>

      <rect x="194" y="0" width="176" height="108" rx="18" fill="#05070d" stroke="#1e3a8a" stroke-opacity="0.7" />
      <text x="218" y="42" fill="#60a5fa" font-size="16" font-family="Helvetica, Arial, sans-serif" font-weight="700" letter-spacing="1.6">LATEST</text>
      <text x="218" y="78" fill="#f8fafc" font-size="34" font-family="Helvetica, Arial, sans-serif" font-weight="800">Releases</text>

      <rect x="388" y="0" width="176" height="108" rx="18" fill="#05070d" stroke="#1e3a8a" stroke-opacity="0.7" />
      <text x="412" y="42" fill="#60a5fa" font-size="16" font-family="Helvetica, Arial, sans-serif" font-weight="700" letter-spacing="1.6">OPEN</text>
      <text x="412" y="78" fill="#f8fafc" font-size="34" font-family="Helvetica, Arial, sans-serif" font-weight="800">Source</text>
    </g>
  </g>

  <g transform="translate(858 118)">
    <rect x="0" y="0" width="264" height="392" rx="28" fill="#060910" stroke="#3b82f6" stroke-opacity="0.45" />
    <rect x="26" y="30" width="212" height="18" rx="9" fill="#1d4ed8" fill-opacity="0.65" />
    <rect x="26" y="70" width="170" height="12" rx="6" fill="#cbd5e1" fill-opacity="0.45" />
    <rect x="26" y="100" width="196" height="12" rx="6" fill="#cbd5e1" fill-opacity="0.28" />
    <rect x="26" y="150" width="212" height="88" rx="18" fill="#0b1220" stroke="#1e40af" stroke-opacity="0.7" />
    <rect x="26" y="258" width="100" height="12" rx="6" fill="#93c5fd" fill-opacity="0.65" />
    <rect x="26" y="286" width="170" height="12" rx="6" fill="#cbd5e1" fill-opacity="0.30" />
    <rect x="26" y="314" width="150" height="12" rx="6" fill="#cbd5e1" fill-opacity="0.22" />
    <rect x="26" y="350" width="118" height="16" rx="8" fill="#3b82f6" fill-opacity="0.8" />
  </g>
</svg>
